<svg width="24" height="24" viewBox="0 0 24 24" fill="none" xmlns="http://www.w3.org/2000/svg">
<path d="M16.5 3C14.76 3 13.09 3.75041 12 4.93624C10.91 3.75041 9.24 3 7.5 3C4.42 3 2 5.24196 2 8.09537C2 11.5973 5.4 14.4507 10.55 18.7864L12 20L13.45 18.7771C18.6 14.4507 22 11.5973 22 8.09537C22 5.24196 19.58 3 16.5 3ZM12.1 17.406L12 17.4986L11.9 17.406C7.14 13.4131 4 10.7728 4 8.09537C4 6.24251 5.5 4.85286 7.5 4.85286C9.04 4.85286 10.54 5.77003 11.07 7.03924H12.94C13.46 5.77003 14.96 4.85286 16.5 4.85286C18.5 4.85286 20 6.24251 20 8.09537C20 10.7728 16.86 13.4131 12.1 17.406Z" fill="none"/>
</svg>
